<svg class="nav-icon" xmlns="http://www.w3.org/2000/svg"
     viewBox="0 0 512 512" preserveAspectRatio="xMidYMid meet"
     role="img" aria-label="Icono Nosotros">
  <title>Nosotros</title>
  <g transform="translate(0,512) scale(0.1,-0.1)" fill="#F5F5DC" stroke="none">
<path d="M345 5106 c-84 -21 -147 -57 -211 -121 -65 -65 -105 -136 -123 -223
-16 -76 -16 -4069 0 -4144 37 -172 175 -310 347 -347 38 -8 384 -11 1205 -11
1144 0 1152 0 1182 -21 93 -63 286 -148 422 -185 898 -245 1816 369 1938 1294
33 251 2 523 -85 750 -24 63 -111 235 -139 277 -21 30 -21 37 -21 1182 0 821
-3 1167 -11 1205 -37 172 -176 311 -347 347 -81 17 -4089 14 -4157 -3z m1935
-1276 l0 -990 -990 0 -990 0 0 933 c1 1048 -4 975 76 1023 l39 24 933 0 932 0
0 -990z m2200 970 c26 -13 47 -34 60 -60 20 -38 20 -57 20 -1015 0 -536 -2
-975 -4 -975 -3 0 -34 22 -69 49 -167 126 -386 223 -617 272 -151 33 -448 33
-597 1 -141 -30 -269 -75 -388 -134 -98 -49 -254 -148 -276 -175 -6 -7 -15
-13 -20 -13 -5 0 -9 448 -9 1035 l0 1035 930 0 c913 0 932 0 970 -20z m-730
-2015 c144 -22 233 -50 365 -114 143 -70 253 -150 356 -258 358 -374 449 -928
230 -1389 -68 -143 -140 -245 -250 -355 -326 -325 -781 -443 -1231 -319 -107
30 -301 128 -400 203 -473 359 -632 995 -381 1523 69 144 140 245 250 355 111
110 213 182 355 250 219 104 468 141 706 104z m-1470 -309 c0 -57 -4 -71 -49
-149 -225 -390 -271 -845 -130 -1269 40 -120 145 -323 214 -416 30 -40 55 -75
55 -77 0 -3 -439 -5 -976 -5 l-976 0 -40 22 c-24 14 -48 38 -59 60 -18 36 -19
74 -19 968 l0 930 990 0 990 0 0 -64z"/>
<path d="M1218 4309 c-62 -32 -78 -77 -78 -214 l0 -115 -115 0 c-139 0 -182
-16 -215 -80 -25 -50 -25 -90 0 -140 33 -64 76 -80 215 -80 l115 0 0 -115 c0
-96 3 -122 20 -155 23 -45 80 -80 130 -80 50 0 107 35 130 80 17 33 20 59 20
155 l0 115 115 0 c96 0 122 3 155 20 45 23 80 80 80 130 0 50 -35 107 -80 130
-33 17 -59 20 -155 20 l-115 0 0 115 c0 139 -16 182 -80 215 -49 25 -94 25
-142 -1z"/>
<path d="M3198 3959 c-43 -22 -78 -81 -78 -129 0 -50 35 -107 80 -130 37 -19
58 -20 370 -20 312 0 333 1 370 20 45 23 80 80 80 130 0 50 -35 107 -80 130
-37 19 -58 20 -372 20 -312 -1 -335 -2 -370 -21z"/>
<path d="M3148 1929 c-43 -22 -78 -81 -78 -129 0 -50 35 -107 80 -130 37 -19
58 -20 420 -20 362 0 383 1 420 20 45 23 80 80 80 130 0 50 -35 107 -80 130
-37 19 -58 20 -422 20 -362 -1 -385 -2 -420 -21z"/>
<path d="M3148 1429 c-43 -22 -78 -81 -78 -129 0 -50 35 -107 80 -130 37 -19
58 -20 420 -20 362 0 383 1 420 20 45 23 80 80 80 130 0 50 -35 107 -80 130
-37 19 -58 20 -422 20 -362 -1 -385 -2 -420 -21z"/>
<path d="M968 1929 c-43 -22 -78 -81 -78 -129 0 -48 25 -88 108 -172 l77 -78
-77 -77 c-42 -43 -83 -92 -92 -110 -61 -122 75 -258 197 -197 18 9 67 50 110
92 l77 77 78 -77 c42 -42 91 -83 109 -92 122 -61 258 75 197 197 -9 18 -50 67
-92 110 l-77 77 77 78 c42 42 83 91 92 109 61 122 -75 258 -197 197 -18 -9
-67 -50 -109 -92 l-78 -77 -77 77 c-114 111 -165 130 -245 87z"/>
</g>
</svg>
