<?xml version="1.0" encoding="UTF-8"?>
<svg version="1.1" xmlns="http://www.w3.org/2000/svg" width="512" height="512">
<path d="M0 0 C3.31756463 1.38718181 4.84954312 2.78846412 6.79882812 5.79003906 C7.31523361 6.57521912 7.8316391 7.36039917 8.36369324 8.16937256 C9.18913383 9.45451752 9.18913383 9.45451752 10.03125 10.765625 C10.6159053 11.65703186 11.20056061 12.54843872 11.80293274 13.46685791 C15.04009378 18.41214877 18.22979751 23.38749664 21.41674805 28.36523438 C22.72821074 30.40587679 24.04111501 32.44559348 25.35546875 34.484375 C26.00585617 35.49371094 26.65624359 36.50304687 27.32633972 37.54296875 C31.04849049 43.24396784 34.94096309 48.59293621 39.36328125 53.765625 C58.37731412 76.58819096 54.52389859 98.58875717 53 128 C69.5 128 86 128 103 128 C102.401875 120.306875 101.80375 112.61375 101.1875 104.6875 C100.29099429 75.95408491 110.54641772 59.6848233 128.11181641 37.9453125 C133.69118513 30.97028264 138.52259306 23.51162053 143.37567139 16.02255249 C145.62375187 12.56467601 147.91670102 9.13699956 150.20703125 5.70703125 C150.95189063 4.58720281 151.69647492 3.4671913 152.44067383 2.34692383 C152.95525146 1.57243896 153.4698291 0.7979541 154 0 C157.42853533 1.14284511 157.77326228 1.73902652 159.66943359 4.66064453 C160.1827272 5.44271271 160.69602081 6.22478088 161.22486877 7.0305481 C161.77714645 7.88929535 162.32942413 8.7480426 162.8984375 9.6328125 C163.48177353 10.52290009 164.06510956 11.41298767 164.66612244 12.33004761 C167.90695627 17.28267299 171.10494582 22.26233022 174.29760742 27.24609375 C182.85073072 40.55292554 182.85073072 40.55292554 192.58984375 52.9921875 C212.17635109 76.33038029 208.65452086 97.66711751 207 128 C223.5 128 240 128 257 128 C256.401875 120.3275 255.80375 112.655 255.1875 104.75 C254.27689777 75.8811776 264.72048025 58.98937484 282.17236328 36.94433594 C285.8596501 32.25343687 289.22369978 27.40085917 292.49609375 22.4140625 C292.98383774 21.67168839 293.47158173 20.92931427 293.97410583 20.16444397 C294.91169755 18.7327603 295.84791834 17.30017769 296.78262329 15.86660767 C298.87194654 12.66952084 300.98884088 9.49269134 303.1328125 6.33203125 C303.81230957 5.31858643 304.49180664 4.3051416 305.19189453 3.26098633 C307 1 307 1 310 0 C310.31668137 0.48239639 310.63336273 0.96479279 310.9596405 1.46180725 C311.41148209 2.14996017 311.86332367 2.8381131 312.32885742 3.54711914 C312.84237762 4.32926788 313.35589783 5.11141663 313.88497925 5.91726685 C315.05078515 7.69115207 316.21783652 9.46421928 317.38601685 11.23654175 C320.66329938 16.21014207 323.92247018 21.19413537 327.15112305 26.19946289 C332.93830974 35.12707812 338.63806279 43.90003302 345.6015625 51.9609375 C365.39930695 75.46721518 361.63083483 97.4800911 360 128 C376.83 128 393.66 128 411 128 C411 145.16 411 162.32 411 180 C394.17 180 377.34 180 360 180 C360 213.33 360 246.66 360 281 C376.83 281 393.66 281 411 281 C411 298.16 411 315.32 411 333 C394.17 333 377.34 333 360 333 C360 358.41 360 383.82 360 410 C326.01 410 292.02 410 257 410 C257 384.59 257 359.18 257 333 C240.5 333 224 333 207 333 C207 358.41 207 383.82 207 410 C172.68 410 138.36 410 103 410 C103 384.59 103 359.18 103 333 C86.5 333 70 333 53 333 C53 358.41 53 383.82 53 410 C19.01 410 -14.98 410 -50 410 C-50 384.92 -50 359.84 -50 334 C-66.83 334 -83.66 334 -101 334 C-101 316.51 -101 299.02 -101 281 C-84.17 281 -67.34 281 -50 281 C-50 247.67 -50 214.34 -50 180 C-66.83 180 -83.66 180 -101 180 C-101 162.84 -101 145.68 -101 128 C-84.17 128 -67.34 128 -50 128 C-50.598125 120.141875 -51.19625 112.28375 -51.8125 104.1875 C-52.70829727 75.1708347 -42.61834313 58.82467828 -24.84082031 36.88183594 C-19.39301354 30.08320966 -14.7250639 22.79437211 -10.05258179 15.45181274 C-7.92150538 12.1120576 -5.74563375 8.80188141 -3.57421875 5.48828125 C-2.38237074 3.65914193 -1.19077254 1.82983963 0 0 Z M53 180 C53 213.33 53 246.66 53 281 C69.5 281 86 281 103 281 C103 247.67 103 214.34 103 180 C86.5 180 70 180 53 180 Z M207 180 C207 213.33 207 246.66 207 281 C223.5 281 240 281 257 281 C257 247.67 257 214.34 257 180 C240.5 180 224 180 207 180 Z " fill="#F5F5DC" transform="translate(101,51)"/>
</svg>


