<svg class="nav-icon" xmlns="http://www.w3.org/2000/svg"
     viewBox="0 0 512 512" preserveAspectRatio="xMidYMid meet"
     role="img" aria-label="Icono Nosotros">
  <title>Nosotros</title>
  <g transform="translate(0,512) scale(0.1,-0.1)" fill="#F5F5DC" stroke="none">
<path d="M1650 4354 c-95 -25 -179 -74 -255 -149 -190 -189 -234 -461 -114
-704 116 -234 378 -362 631 -310 154 32 318 160 392 306 173 345 -8 763 -371
857 -75 20 -209 20 -283 0z"/>
<path d="M3211 3824 c-245 -66 -400 -332 -336 -578 68 -260 314 -415 560 -351
213 56 355 241 355 465 0 134 -47 248 -139 341 -118 118 -286 165 -440 123z"/>
<path d="M1603 2909 c-492 -55 -922 -327 -1115 -704 -81 -159 -112 -286 -110
-450 1 -183 38 -533 62 -606 57 -169 192 -307 363 -371 l62 -23 897 -3 c998
-3 963 -5 1100 64 138 69 261 226 297 376 14 58 51 484 51 583 0 454 -375 897
-900 1063 -211 67 -494 96 -707 71z"/>
<path d="M3230 2594 c0 -4 20 -34 43 -68 154 -217 241 -455 254 -691 7 -139
-30 -596 -58 -714 -21 -93 -81 -229 -132 -300 -18 -25 -37 -52 -41 -59 -6 -11
81 -13 481 -10 l488 3 70 29 c133 55 232 137 300 251 54 90 73 168 95 390 20
204 18 272 -11 380 -18 65 -75 182 -123 248 -57 81 -193 210 -281 269 -217
143 -505 240 -800 268 -122 11 -285 13 -285 4z"/>
</g>
</svg>
