<?xml version="1.0" encoding="UTF-8"?>
<svg version="1.1" xmlns="http://www.w3.org/2000/svg" width="512" height="512">
<path d="M0 0 C2.80290194 -0.00488538 5.6057748 -0.01568694 8.40866089 -0.02610779 C15.18835805 -0.04758755 21.96788634 -0.04766223 28.74760625 -0.03948224 C34.26708967 -0.03314364 39.78652441 -0.03435433 45.30600739 -0.04075432 C46.09609649 -0.04165597 46.88618559 -0.04255763 47.70021679 -0.04348661 C49.30607183 -0.0453381 50.91192686 -0.04720067 52.51778188 -0.04907417 C67.52737274 -0.06559751 82.53686921 -0.05698094 97.54645434 -0.04008859 C111.22589419 -0.02540407 124.90511413 -0.04001215 138.58452567 -0.06885875 C152.68894687 -0.0983761 166.79326703 -0.10918881 180.89771771 -0.09967655 C182.49839352 -0.09865418 184.09906934 -0.09765956 185.69974518 -0.09669304 C186.48696779 -0.09621665 187.2741904 -0.09574026 188.08526824 -0.09524943 C193.58456205 -0.09310112 199.08375845 -0.10280438 204.5830307 -0.11746407 C211.30465935 -0.13513489 218.02600838 -0.13466221 224.74762675 -0.11211241 C228.16549075 -0.10110033 231.58246816 -0.10029287 235.00037003 -0.11641312 C274.09026225 -0.28603089 306.10020255 10.57330056 334.77050781 37.53344727 C335.36089844 38.05938477 335.95128906 38.58532227 336.55957031 39.12719727 C355.34776951 56.57974249 365.85990568 81.88089738 370.77050781 106.53344727 C371.03113227 107.75244642 371.03113227 107.75244642 371.29702187 108.99607182 C371.96858651 114.01327729 371.92209331 118.97709375 371.92440796 124.03379822 C371.93098134 125.78124064 371.93098134 125.78124064 371.93768752 127.56398493 C371.94872003 130.78968221 371.95529001 134.01535218 371.95986867 137.24106395 C371.96584416 140.7240584 371.97744964 144.2070352 371.98815918 147.6900177 C372.01264735 156.10149086 372.02730953 164.51296984 372.04021925 172.92446765 C372.04393523 175.30433071 372.04790817 177.68419319 372.05197191 180.06405568 C372.07722369 194.87142017 372.09925727 209.67878569 372.11170006 224.48616695 C372.11462935 227.91395509 372.11759106 231.34174319 372.12060547 234.76953125 C372.12135152 235.62140216 372.12209757 236.47327306 372.12286623 237.35095824 C372.13548862 251.11527024 372.1686707 264.87945216 372.2104073 278.64370351 C372.25299633 292.80645075 372.27641497 306.96913176 372.28162062 321.13194281 C372.2850167 329.07092458 372.2965558 337.00970348 372.32972336 344.94862175 C372.35795997 351.71810944 372.36862151 358.48735268 372.3575279 365.25689464 C372.35239973 368.70090937 372.35483684 372.14441422 372.37999344 375.5883522 C372.61990667 414.75770697 361.78756696 446.80261944 334.77050781 475.53344727 C334.24457031 476.12383789 333.71863281 476.71422852 333.17675781 477.32250977 C319.04616578 492.53452466 298.57967112 503.10837131 278.77050781 508.53344727 C278.13323934 508.71057593 277.49597087 508.8877046 276.83939123 509.0702008 C261.80766158 513.10147277 247.01538715 513.10825985 231.54101562 513.06689453 C228.73811368 513.07177991 225.93524083 513.08258147 223.13235474 513.09300232 C216.35265757 513.11448208 209.57312929 513.11455676 202.79340938 513.10637677 C197.27392595 513.10003817 191.75449122 513.10124886 186.23500824 513.10764885 C185.44491914 513.1085505 184.65483004 513.10945216 183.84079884 513.11038114 C182.23494379 513.11223263 180.62908876 513.1140952 179.02323374 513.1159687 C164.01364288 513.13249204 149.00414642 513.12387547 133.99456128 513.10698312 C120.31512143 513.0922986 106.63590149 513.10690668 92.95648995 513.13575328 C78.85206875 513.16527063 64.7477486 513.17608334 50.64329791 513.16657108 C49.04262211 513.16554871 47.44194629 513.16455409 45.84127045 513.16358757 C45.05404784 513.16311118 44.26682522 513.16263479 43.45574738 513.16214396 C37.95645358 513.15999565 32.45725718 513.16969891 26.95798492 513.1843586 C20.23635628 513.20202942 13.51500725 513.20155674 6.79338887 513.17900694 C3.37552488 513.16799486 -0.04145253 513.1671874 -3.4593544 513.18330765 C-42.54924663 513.35292542 -74.55918693 502.49359397 -103.22949219 475.53344727 C-104.11507812 474.74454102 -104.11507812 474.74454102 -105.01855469 473.93969727 C-120.2319379 459.80783418 -130.80145312 439.34309033 -136.22949219 419.53344727 C-136.49543833 418.57855715 -136.49543833 418.57855715 -136.76675713 417.60437632 C-140.64188682 403.18917513 -140.8046906 389.05059843 -140.73773181 374.19970512 C-140.72646335 370.70958167 -140.73861594 367.21952007 -140.74757385 363.72940063 C-140.76140032 356.92028664 -140.75403022 350.11135996 -140.73889827 343.30225512 C-140.72191398 335.35285529 -140.7252638 327.40350051 -140.72899235 319.45408812 C-140.73485112 305.26175363 -140.7207756 291.06950827 -140.69604492 276.87719727 C-140.67211186 263.1408352 -140.66505029 249.40459207 -140.67553711 235.66821289 C-140.68697205 220.66329992 -140.68884603 205.65844175 -140.67443901 190.65352941 C-140.67291336 189.05075026 -140.67139301 187.44797111 -140.66987801 185.84519196 C-140.66912019 185.05684365 -140.66836238 184.26849534 -140.6675816 183.45625769 C-140.66286007 177.92919141 -140.66467486 172.4021498 -140.66894341 166.87508392 C-140.6738934 160.13278258 -140.66778201 153.39059317 -140.64804911 146.64831731 C-140.63824601 143.21547166 -140.63299549 139.78279567 -140.64094162 136.34994125 C-140.68314139 110.10021533 -140.68314139 110.10021533 -137.22949219 97.53344727 C-137.03756507 96.76077892 -136.84563795 95.98811058 -136.64789486 95.19202805 C-128.40732609 63.32641727 -107.11501776 35.09241808 -78.94433594 18.15991211 C-68.76354377 12.3000863 -58.57442129 7.64044887 -47.22949219 4.53344727 C-46.59222372 4.3563186 -45.95495524 4.17918993 -45.29837561 3.99669373 C-30.26664596 -0.03457824 -15.47437153 -0.04136532 0 0 Z M-69.22949219 65.53344727 C-69.99132812 66.19989258 -70.75316406 66.86633789 -71.53808594 67.55297852 C-87.05512705 82.04810011 -96.52079577 103.87017396 -97.3233285 125.00459373 C-97.36374847 127.85528554 -97.3723851 130.70442515 -97.36993408 133.55540466 C-97.3729052 134.64463748 -97.37587633 135.73387029 -97.37893748 136.85611016 C-97.3875885 140.49522713 -97.3891297 144.13431107 -97.390625 147.7734375 C-97.39525579 150.38739593 -97.4002808 153.00135369 -97.40567017 155.61531067 C-97.4192149 162.71079172 -97.42527248 169.80626709 -97.42968082 176.90175891 C-97.43245041 181.3396032 -97.4366891 185.77744533 -97.441185 190.21528816 C-97.45337379 202.52294878 -97.46367311 214.83060767 -97.46706009 227.13827419 C-97.46727966 227.92503648 -97.46749922 228.71179878 -97.46772544 229.52240235 C-97.46794372 230.3109608 -97.468162 231.09951925 -97.46838689 231.91197342 C-97.46883034 233.50967499 -97.4692769 235.10737656 -97.46972656 236.70507812 C-97.46994799 237.49757959 -97.47016942 238.29008106 -97.47039756 239.10659773 C-97.47434052 251.93068586 -97.49178095 264.754717 -97.51508608 277.57878315 C-97.5388668 290.77201553 -97.55126503 303.96521941 -97.55242801 317.15847355 C-97.55334113 324.555031 -97.55900105 331.95151421 -97.57724762 339.34805107 C-97.59273979 345.64990578 -97.59771594 351.95166331 -97.58950952 358.25353348 C-97.58563462 361.46177563 -97.58804806 364.66978421 -97.60056686 367.8780098 C-97.70216621 395.55510063 -94.18779163 419.98196084 -75.22949219 441.53344727 C-74.22982422 442.67620117 -74.22982422 442.67620117 -73.20996094 443.84204102 C-59.11231377 458.93358539 -37.46360665 468.81825886 -16.83708489 469.62728357 C-13.97268265 469.66805606 -11.10982719 469.67632448 -8.24513245 469.67388916 C-7.14788139 469.67686028 -6.05063033 469.6798314 -4.92012924 469.68289256 C-1.24793321 469.69155545 2.42423012 469.69308579 6.09643555 469.69458008 C8.73157402 469.69921004 11.36670956 469.70421472 14.00184631 469.70962524 C21.15930094 469.72317922 28.31674995 469.72922909 35.47421527 469.7336359 C39.94973604 469.73640406 44.42525468 469.74064252 48.900774 469.74514008 C61.30962075 469.75733036 73.71846578 469.76762921 86.12731838 469.77101517 C87.31754468 469.77134452 87.31754468 469.77134452 88.53181595 469.77168052 C89.72478381 469.77200794 89.72478381 469.77200794 90.94185203 469.77234197 C92.55327571 469.77278542 94.16469938 469.77323198 95.77612305 469.77368164 C96.57543356 469.77390307 97.37474407 469.7741245 98.19827611 469.77435264 C111.13303411 469.77829573 124.0677356 469.79573587 137.0024718 469.81904116 C150.30527888 469.84281462 163.60805769 469.85521979 176.91088635 469.85638309 C184.37058375 469.85729664 191.83020756 469.86296764 199.28988457 469.8812027 C205.64559065 469.89668504 212.00120041 469.90167672 218.35692178 469.8934646 C221.59338616 469.88958621 224.82961871 469.89201621 228.06606674 469.90452194 C255.46607084 470.00413067 279.44227069 466.29535992 300.77050781 447.53344727 C301.53234375 446.86700195 302.29417969 446.20055664 303.07910156 445.51391602 C318.59614267 431.01879442 328.06181139 409.19672057 328.86434412 388.0623008 C328.9047641 385.21160899 328.91340073 382.36246938 328.91094971 379.51148987 C328.91392083 378.42225706 328.91689195 377.33302424 328.91995311 376.21078438 C328.92860413 372.5716674 328.93014532 368.93258346 328.93164062 365.29345703 C328.93627142 362.6794986 328.94129643 360.06554084 328.94668579 357.45158386 C328.96023052 350.35610281 328.96628811 343.26062744 328.97069645 336.16513562 C328.97346603 331.72729133 328.97770473 327.2894492 328.98220062 322.85160637 C328.99438942 310.54394575 329.00468874 298.23628686 329.00807571 285.92862034 C329.00829528 285.14185805 329.00851485 284.35509575 329.00874107 283.54449218 C329.00895934 282.75593373 329.00917762 281.96737528 329.00940251 281.15492111 C329.00984597 279.55721954 329.01029253 277.95951797 329.01074219 276.36181641 C329.01096362 275.56931494 329.01118505 274.77681347 329.01141319 273.9602968 C329.01535615 261.13620867 329.03279657 248.31217753 329.05610171 235.48811138 C329.07988242 222.294879 329.09228065 209.10167513 329.09344363 195.90842098 C329.09435675 188.51186353 329.10001667 181.11538032 329.11826324 173.71884346 C329.13375542 167.41698875 329.13873157 161.11523122 329.13052514 154.81336106 C329.12665025 151.6051189 329.12906368 148.39711033 329.14158249 145.18888474 C329.24318184 117.5117939 325.72880725 93.08493369 306.77050781 71.53344727 C306.1040625 70.77161133 305.43761719 70.00977539 304.75097656 69.22485352 C290.6533294 54.13330915 269.00462227 44.24863568 248.37810051 43.43961096 C245.51369827 43.39883847 242.65084281 43.39057005 239.78614807 43.39300537 C238.68889701 43.39003425 237.59164595 43.38706313 236.46114486 43.38400197 C232.78894884 43.37533908 229.11678551 43.37380874 225.44458008 43.37231445 C222.80944161 43.36768449 220.17430606 43.36267982 217.53916931 43.35726929 C210.38171468 43.34371531 203.22426568 43.33766545 196.06680036 43.33325863 C191.59127958 43.33049047 187.11576095 43.32625201 182.64024162 43.32175446 C170.23139488 43.30956417 157.82254984 43.29926533 145.41369724 43.29587936 C144.62021305 43.2956598 143.82672885 43.29544023 143.00919968 43.29521401 C141.81623181 43.2948866 141.81623181 43.2948866 140.59916359 43.29455256 C138.98773992 43.29410911 137.37631625 43.29366255 135.76489258 43.29321289 C134.96558207 43.29299146 134.16627156 43.29277003 133.34273952 43.29254189 C120.40798152 43.2885988 107.47328002 43.27115866 94.53854383 43.24785337 C81.23573674 43.22407991 67.93295793 43.21167474 54.63012928 43.21051145 C47.17043188 43.20959789 39.71080806 43.20392689 32.25113106 43.18569183 C25.89542498 43.17020949 19.53981522 43.16521781 13.18409384 43.17342994 C9.94762947 43.17730832 6.71139692 43.17487832 3.47494888 43.16237259 C-23.92505522 43.06276386 -47.90125507 46.77153461 -69.22949219 65.53344727 Z " fill="#F5F5DC" transform="translate(140.2294921875,-0.533447265625)"/>
<path d="M0 0 C1.01247803 0.27408691 1.01247803 0.27408691 2.04541016 0.55371094 C32.31829414 8.88268602 61.01342228 28.59651721 77 56 C77.40943848 56.69963867 77.81887695 57.39927734 78.24072266 58.12011719 C84.66997596 69.30121891 89.58876157 80.56227976 93 93 C93.50853516 94.76150391 93.50853516 94.76150391 94.02734375 96.55859375 C98.38980524 114.9130976 98.21629674 138.90223765 93 157 C92.81727539 157.67498535 92.63455078 158.3499707 92.44628906 159.04541016 C83.4091657 191.89216312 61.95911268 219.59872676 32.53125 236.62109375 C22.09408657 242.45866487 11.52569523 246.83889863 0 250 C-1.17433594 250.33902344 -2.34867188 250.67804688 -3.55859375 251.02734375 C-21.9130976 255.38980524 -45.90223765 255.21629674 -64 250 C-64.67498535 249.81727539 -65.3499707 249.63455078 -66.04541016 249.44628906 C-96.31829414 241.11731398 -125.01342228 221.40348279 -141 194 C-141.40943848 193.30036133 -141.81887695 192.60072266 -142.24072266 191.87988281 C-148.66997596 180.69878109 -153.58876157 169.43772024 -157 157 C-157.33902344 155.82566406 -157.67804688 154.65132812 -158.02734375 153.44140625 C-162.38980524 135.0869024 -162.21629674 111.09776235 -157 93 C-156.72591309 91.98752197 -156.72591309 91.98752197 -156.44628906 90.95458984 C-148.11731398 60.68170586 -128.40348279 31.98657772 -101 16 C-99.95054199 15.38584229 -99.95054199 15.38584229 -98.87988281 14.75927734 C-87.69878109 8.33002404 -76.43772024 3.41123843 -64 0 C-62.82566406 -0.33902344 -61.65132813 -0.67804688 -60.44140625 -1.02734375 C-42.0869024 -5.38980524 -18.09776235 -5.21629674 0 0 Z M-89 62 C-89.76183594 62.66644531 -90.52367187 63.33289063 -91.30859375 64.01953125 C-107.06607503 78.73925813 -115.84929689 100.2435393 -117.15625 121.546875 C-117.8830098 143.95530224 -109.74825631 165.23442213 -95 182 C-94.00033203 183.14275391 -94.00033203 183.14275391 -92.98046875 184.30859375 C-78.41169747 199.90447691 -56.93786709 208.85549805 -35.81640625 210.203125 C-13.08574644 210.53057748 7.84843242 203.08780172 25 188 C25.76183594 187.33355469 26.52367187 186.66710937 27.30859375 185.98046875 C43.06607503 171.26074187 51.84929689 149.7564607 53.15625 128.453125 C53.8830098 106.04469776 45.74825631 84.76557787 31 68 C30.33355469 67.23816406 29.66710937 66.47632813 28.98046875 65.69140625 C14.41169747 50.09552309 -7.06213291 41.14450195 -28.18359375 39.796875 C-50.91425356 39.46942252 -71.84843242 46.91219828 -89 62 Z " fill="#F5F5DC" transform="translate(288,131)"/>
<path d="M0 0 C0.66644531 0.41378906 1.33289063 0.82757813 2.01953125 1.25390625 C2.71691406 1.67800781 3.41429687 2.10210937 4.1328125 2.5390625 C11.26493591 7.36096891 15.73852504 13.97622759 18.01953125 22.25390625 C19.24826131 32.9373908 17.43648751 42.09748886 11.125 50.89453125 C9.07033458 53.19697635 7.16449847 54.7719777 4.58203125 56.44140625 C3.47021484 57.17423828 3.47021484 57.17423828 2.3359375 57.921875 C-5.64387558 62.51060394 -14.87166426 63.30663883 -23.79296875 61.19140625 C-32.79677495 58.30809131 -38.23904092 52.38104809 -43.66796875 44.94140625 C-47.53310019 37.02708949 -47.60120596 28.82511266 -45.98046875 20.25390625 C-44.67234528 16.65656671 -43.01265077 13.49079498 -40.98046875 10.25390625 C-40.42359375 9.34640625 -39.86671875 8.43890625 -39.29296875 7.50390625 C-29.10127033 -2.41234086 -13.057767 -6.95283697 0 0 Z " fill="#F5F5DC" transform="translate(408.98046875,87.74609375)"/>
</svg>
