<svg class="nav-icon" xmlns="http://www.w3.org/2000/svg"
     viewBox="0 0 512 512" preserveAspectRatio="xMidYMid meet"
     role="img" aria-label="Icono Nosotros">
  <title>Nosotros</title>
  <g transform="translate(0,512) scale(0.1,-0.1)" fill="#F5F5DC" stroke="none">
<path d="M1049 4737 c-56 -21 -81 -43 -256 -219 l-163 -163 495 -495 c272
-272 497 -492 500 -489 18 18 261 433 278 474 28 70 28 167 0 220 -27 50 -615
636 -663 660 -45 23 -145 29 -191 12z"/>
<path d="M506 4229 c-52 -58 -95 -136 -117 -214 -20 -72 -18 -269 4 -375 115
-544 613 -1292 1333 -2000 525 -517 1047 -900 1505 -1106 460 -206 790 -216
997 -29 l54 48 -514 514 -513 513 -67 0 c-94 0 -154 26 -283 122 -387 287
-894 791 -1190 1183 -106 140 -129 191 -133 291 l-4 81 -512 512 -513 513 -47
-53z"/>
<path d="M2555 4011 c11 -10 230 -179 488 -375 l467 -355 468 355 c257 196
476 364 487 375 19 19 3 19 -955 19 -956 0 -974 0 -955 -19z"/>
<path d="M2430 3349 c0 -596 1 -620 18 -607 10 7 194 147 410 312 l391 298
-27 22 c-65 53 -781 596 -786 596 -3 0 -6 -279 -6 -621z"/>
<path d="M4275 3739 c-165 -127 -346 -265 -402 -308 l-103 -78 198 -150 c108
-83 293 -223 410 -312 l212 -162 0 621 c0 341 -3 620 -7 619 -5 0 -143 -104
-308 -230z"/>
<path d="M2935 2988 l-397 -303 486 -3 c267 -1 705 -1 972 0 l487 3 -397 303
-398 302 -79 -60 c-44 -33 -89 -60 -99 -60 -16 0 -57 28 -166 112 -7 5 -152
-99 -409 -294z"/>
<path d="M3901 1920 c-58 -14 -111 -41 -321 -168 -113 -68 -207 -126 -210
-128 -2 -3 218 -227 490 -499 l495 -495 168 168 c205 203 222 229 222 332 0
63 -4 82 -27 120 -14 25 -165 183 -335 351 -283 282 -312 307 -355 318 -52 12
-77 13 -127 1z"/>
</g>
</svg>
