<?xml version="1.0" encoding="UTF-8"?>
<svg version="1.1" xmlns="http://www.w3.org/2000/svg" width="512" height="512">
<path d="M0 0 C1.63309093 -0.00417981 3.26617895 -0.00966086 4.89926165 -0.01631981 C9.35827209 -0.03070842 13.81709665 -0.0265504 18.27611697 -0.019153 C23.0962963 -0.01440722 27.91643623 -0.02694366 32.73660278 -0.03717041 C42.16887874 -0.05433651 51.60108802 -0.05520291 61.03337554 -0.04995751 C68.70316225 -0.04591028 76.3729293 -0.04736593 84.04271507 -0.05270576 C85.68234457 -0.0538284 85.68234457 -0.0538284 87.35509789 -0.05497371 C89.57596551 -0.05650525 91.79683314 -0.05804359 94.01770075 -0.05958868 C114.82887802 -0.07330595 135.64001767 -0.06788159 156.45119407 -0.05640347 C175.47132249 -0.04647324 194.4913536 -0.05940951 213.51146702 -0.08333766 C233.06227401 -0.10774727 252.61303572 -0.11733186 272.16385764 -0.11068493 C283.13174659 -0.10719668 294.09956073 -0.10939867 305.06743813 -0.12693596 C314.40469083 -0.14168127 323.74181605 -0.142263 333.07906631 -0.12486505 C337.83843908 -0.11637164 342.59758433 -0.11416479 347.35694504 -0.1295166 C351.7225472 -0.14342339 356.08772823 -0.13852421 360.4533064 -0.11927737 C362.02386249 -0.11553531 363.59445281 -0.11838696 365.16497824 -0.12888902 C385.88154904 -0.25745587 403.33778018 5.91590528 418.62419128 20.38768005 C423.83434634 25.72855585 427.53892735 31.67153485 430.93669128 38.26268005 C431.42528625 39.19769348 431.42528625 39.19769348 431.92375183 40.15159607 C437.3747468 51.2761624 438.06296219 62.58622921 438.01187134 74.76348877 C438.01605115 76.3965797 438.02153219 78.02966772 438.02819115 79.66275042 C438.04257976 84.12176085 438.03842174 88.58058542 438.03102434 93.03960574 C438.02627856 97.85978507 438.038815 102.679925 438.04904175 107.50009155 C438.06620785 116.93236751 438.06707425 126.36457679 438.06182884 135.79686431 C438.05778162 143.46665102 438.05923727 151.13641807 438.0645771 158.80620384 C438.06532552 159.89929017 438.06607395 160.9923765 438.06684505 162.11858666 C438.06837658 164.33945428 438.06991493 166.56032191 438.07146002 168.78118952 C438.08517729 189.59236679 438.07975293 210.40350644 438.0682748 231.21468284 C438.05834458 250.23481126 438.07128085 269.25484237 438.095209 288.27495579 C438.11961861 307.82576278 438.1292032 327.37652449 438.12255627 346.92734641 C438.11906802 357.89523536 438.12127001 368.8630495 438.1388073 379.8309269 C438.15355261 389.1681796 438.15413434 398.50530482 438.13673639 407.84255508 C438.12824298 412.60192785 438.12603613 417.3610731 438.14138794 422.12043381 C438.15529472 426.48603597 438.15039554 430.851217 438.1311487 435.21679517 C438.12740664 436.78735126 438.1302583 438.35794158 438.14076035 439.92846701 C438.26932721 460.64503781 432.09596606 478.10126895 417.62419128 493.38768005 C412.28331549 498.59783511 406.34033649 502.30241612 399.74919128 505.70018005 C398.81417786 506.18877502 398.81417786 506.18877502 397.86027527 506.6872406 C386.72757309 512.14222211 375.41395821 512.82522518 363.22819519 512.76863098 C361.59296673 512.77209343 359.9577406 512.77686192 358.3225193 512.78281271 C353.85771126 512.79527176 349.39309696 512.78917568 344.92828846 512.77985406 C340.1020359 512.77304292 335.27581574 512.78355501 330.4495697 512.79179382 C321.00626413 512.80511136 311.56303023 512.80226224 302.11972189 512.7935559 C294.44275927 512.78677197 286.76581669 512.7858657 279.08885193 512.78912735 C277.99489943 512.78958705 276.90094693 512.79004675 275.77384436 512.79052038 C273.55127954 512.79147958 271.32871472 512.79245222 269.10614991 512.79343815 C248.2807542 512.80198625 227.45539814 512.79216702 206.63000894 512.77603705 C188.77323215 512.76263441 170.91651389 512.76496266 153.05973816 512.77879333 C132.30723546 512.79485939 111.55476749 512.80116233 90.80225945 512.79195654 C88.58801652 512.79100093 86.37377358 512.79005782 84.15953064 512.78912735 C82.52549174 512.78843311 82.52549174 512.78843311 80.85844195 512.78772485 C73.19353755 512.78513804 65.52865525 512.78949929 57.86375427 512.79656601 C48.51874549 512.8049926 39.17381228 512.80267649 29.82881212 512.78672378 C25.06377283 512.77885668 20.29885938 512.7757228 15.53382111 512.78567123 C11.16658605 512.79465103 6.79959279 512.78963148 2.43237948 512.77373858 C0.85784033 512.77040464 -0.71671952 512.77205339 -2.29124522 512.77936594 C-14.48539858 512.83162731 -25.50927746 511.4404312 -36.43830872 505.76268005 C-37.11313293 505.41640564 -37.78795715 505.07013123 -38.48323059 504.71336365 C-51.68648988 497.69402861 -60.89078029 487.69885124 -67.68830872 474.51268005 C-68.17690369 473.57766663 -68.17690369 473.57766663 -68.67536926 472.62376404 C-74.12636424 461.4991977 -74.81457962 450.1891309 -74.76348877 438.01187134 C-74.76766858 436.37878041 -74.77314963 434.74569239 -74.77980858 433.11260968 C-74.79419719 428.65359925 -74.79003917 424.19477469 -74.78264177 419.73575437 C-74.77789599 414.91557504 -74.79043243 410.0954351 -74.80065918 405.27526855 C-74.81782528 395.8429926 -74.81869168 386.41078332 -74.81344628 376.9784958 C-74.80939905 369.30870909 -74.8108547 361.63894204 -74.81619453 353.96915627 C-74.81694296 352.87606994 -74.81769138 351.78298361 -74.81846248 350.65677345 C-74.81999402 348.43590582 -74.82153236 346.2150382 -74.82307745 343.99417058 C-74.83679472 323.18299331 -74.83137036 302.37185367 -74.81989224 281.56067727 C-74.80996201 262.54054885 -74.82289828 243.52051773 -74.84682643 224.50040432 C-74.87123604 204.94959733 -74.88082063 185.39883562 -74.8741737 165.8480137 C-74.87068545 154.88012475 -74.87288744 143.91231061 -74.89042473 132.94443321 C-74.90517004 123.60718051 -74.90575177 114.27005529 -74.88835382 104.93280502 C-74.87986041 100.17343226 -74.87765356 95.41428701 -74.89300537 90.6549263 C-74.90691216 86.28932414 -74.90201297 81.92414311 -74.88276614 77.55856494 C-74.87902408 75.98800885 -74.88187573 74.41741853 -74.89237779 72.84689309 C-75.02094464 52.1303223 -68.84758349 34.67409116 -54.37580872 19.38768005 C-49.03493292 14.17752499 -43.09195392 10.47294399 -36.50080872 7.07518005 C-35.87746643 6.74945007 -35.25412415 6.42372009 -34.6118927 6.08811951 C-23.48732637 0.63712453 -12.17725956 -0.05109085 0 0 Z M146.62419128 100.38768005 C145.84011902 100.58635681 145.05604675 100.78503357 144.24821472 100.98973083 C115.3176823 108.51257088 91.19660337 122.82935572 69.62419128 143.38768005 C68.90489441 144.05412537 68.18559753 144.72057068 67.44450378 145.4072113 C40.85089974 170.77259668 24.30587036 210.88363364 23.32341003 247.4306488 C23.30399259 249.81208326 23.3004214 252.1936931 23.31169128 254.57518005 C23.31733093 255.8403949 23.32297058 257.10560974 23.32878113 258.40916443 C23.59859789 279.38541398 27.57563785 301.20475061 37.5275116 319.88841248 C42.04620065 328.99268738 37.72534102 340.36372963 35.70995712 349.81145668 C35.20045041 352.20263307 34.69840416 354.59527047 34.19831848 356.98843384 C32.77692826 363.7848009 31.34359148 370.57861617 29.9025116 377.37083435 C29.01778593 381.54331725 28.14256117 385.71770245 27.27310562 389.89339256 C26.94108091 391.4781749 26.60535881 393.06218738 26.26583481 394.64538002 C25.7922446 396.85434828 25.33071935 399.06552748 24.87174988 401.27757263 C24.60607208 402.53314468 24.34039429 403.78871674 24.06666565 405.08233643 C23.64006022 408.26913693 23.64363486 410.34599701 24.62419128 413.38768005 C26.52607463 415.72516824 26.52607463 415.72516824 29.77241516 415.618927 C33.7508745 415.38007444 37.41142757 414.67771347 41.25260925 413.68772888 C42.34436462 413.41715416 42.34436462 413.41715416 43.45817566 413.14111328 C45.02764765 412.75155312 46.59627056 412.35855904 48.16410446 411.96245766 C50.6515534 411.33585055 53.14187788 410.72224918 55.63349915 410.11245728 C62.71365493 408.37865872 69.79052981 406.63246751 76.85905457 404.85179138 C81.1933798 403.76088549 85.53305809 402.69411282 89.87703323 401.64232445 C91.52416829 401.23862848 93.16913831 400.82598402 94.81168747 400.40401649 C111.02077497 396.24575318 111.02077497 396.24575318 118.62419128 400.38768005 C119.75341003 400.85947693 120.88262878 401.3312738 122.04606628 401.81736755 C123.14434753 402.29432068 124.24262878 402.7712738 125.37419128 403.26268005 C164.01646784 419.23462063 207.2336239 415.64655839 245.34342957 400.35398865 C260.18118111 394.06755955 273.47323687 384.88787456 285.62419128 374.38768005 C286.11951355 373.96083923 286.61483582 373.53399841 287.12516785 373.09422302 C294.39976275 366.77802713 300.79924387 360.08898221 306.62419128 352.38768005 C307.4246991 351.35256287 308.22520691 350.31744568 309.04997253 349.2509613 C329.43580719 322.28481329 340.09399385 288.9153638 339.93669128 255.20018005 C339.93177673 253.9371405 339.92686218 252.67410095 339.92179871 251.37278748 C339.79441016 241.12748187 338.89977724 231.373593 336.62419128 221.38768005 C336.4632196 220.66145447 336.30224792 219.93522888 336.13639832 219.18699646 C329.67932877 191.02027909 315.37945066 166.29341211 295.62419128 145.38768005 C294.44663269 144.09603943 294.44663269 144.09603943 293.24528503 142.77830505 C268.21291054 116.33188803 229.15164924 98.17203781 192.63897705 97.12373352 C189.0710714 97.06082184 185.50502115 97.0567087 181.93669128 97.07518005 C180.81143036 97.07841278 180.81143036 97.07841278 179.66343689 97.08171082 C168.41558983 97.13353593 157.55308173 97.54166811 146.62419128 100.38768005 Z " fill="#F5F5DC" transform="translate(74.37580871582031,-0.3876800537109375)"/>
<path d="M0 0 C2.53151636 2.23669691 4.99944271 4.52597586 7.453125 6.84765625 C8.2884375 7.61851562 9.12375 8.389375 9.984375 9.18359375 C16.54042426 15.43612221 21.57632622 22.278262 26.453125 29.84765625 C26.99710938 30.6571875 27.54109375 31.46671875 28.1015625 32.30078125 C45.60885938 59.53435418 49.15676728 94.71841978 42.453125 125.84765625 C34.51589969 157.30762211 15.14112239 185.69772839 -12.8125 202.68359375 C-23.88945672 209.19496884 -35.13651783 214.40250978 -47.546875 217.84765625 C-48.65933594 218.16734375 -49.77179688 218.48703125 -50.91796875 218.81640625 C-79.72216484 225.63098057 -114.20373168 221.48996884 -139.734375 206.34765625 C-140.49105469 205.84234375 -141.24773437 205.33703125 -142.02734375 204.81640625 C-147.86693218 202.57110713 -155.55366838 205.450426 -161.46484375 206.9140625 C-163.14777495 207.32101115 -164.830718 207.72791076 -166.51367188 208.13476562 C-169.1341282 208.77393135 -171.75410858 209.41499518 -174.3737793 210.05737305 C-176.92383779 210.68102736 -179.4754859 211.29781927 -182.02734375 211.9140625 C-183.19779488 212.20465294 -183.19779488 212.20465294 -184.39189148 212.50111389 C-188.19139448 213.41639603 -191.60523649 214.08975962 -195.546875 213.84765625 C-194.54899478 206.61717922 -193.31827621 199.48515163 -191.78515625 192.3515625 C-191.62925018 191.6225473 -191.47334412 190.8935321 -191.31271362 190.14242554 C-190.66629773 187.1308865 -190.01610457 184.12030648 -189.35229492 181.11254883 C-188.86181857 178.88170324 -188.38503012 176.6482737 -187.91015625 174.4140625 C-187.75815262 173.74210342 -187.60614899 173.07014435 -187.44953918 172.37782288 C-186.24037698 166.60802764 -186.64874737 162.05104612 -189.40234375 156.84375 C-189.77480225 156.11381836 -190.14726074 155.38388672 -190.53100586 154.63183594 C-190.92811768 153.85743164 -191.32522949 153.08302734 -191.734375 152.28515625 C-206.20356811 122.85648444 -208.89831783 88.7329276 -198.58398438 57.50341797 C-192.23761224 39.22753143 -183.55803003 23.95419913 -169.92822266 10.24804688 C-168.68562873 8.98832281 -167.47898433 7.69337855 -166.27734375 6.39453125 C-123.53945293 -38.95996513 -46.41654619 -39.22625299 0 0 Z M-151.546875 35.84765625 C-159.06750668 48.22359416 -160.19612479 59.43742349 -157.93359375 73.71875 C-154.35904634 87.33982273 -147.35239796 99.94332585 -138.546875 110.84765625 C-137.72445312 111.87246094 -136.90203125 112.89726562 -136.0546875 113.953125 C-126.37740236 125.79199692 -115.68288557 136.52602883 -103.546875 145.84765625 C-103.00901367 146.27256348 -102.47115234 146.6974707 -101.91699219 147.13525391 C-87.32740324 158.63396851 -71.62134824 167.27587772 -53.546875 171.84765625 C-52.78503906 172.04746094 -52.02320313 172.24726563 -51.23828125 172.453125 C-46.95355527 173.08121981 -42.68421145 173.0732738 -38.359375 173.09765625 C-37.46412109 173.11828125 -36.56886719 173.13890625 -35.64648438 173.16015625 C-24.52150236 173.22441607 -16.7778291 170.24937244 -8.546875 162.84765625 C-7.9178125 162.28820312 -7.28875 161.72875 -6.640625 161.15234375 C-1.20610569 156.02768739 3.45831294 150.35875762 5.515625 143.09765625 C5.44337655 139.34073688 4.7400748 137.78802028 2.453125 134.84765625 C1.8947998 134.11446167 1.8947998 134.11446167 1.32519531 133.36645508 C-1.50982496 131.06642103 -4.79762634 130.29032415 -8.25 129.296875 C-9.00601501 129.07441605 -9.76203003 128.85195709 -10.54095459 128.62275696 C-12.13989692 128.15633184 -13.74039275 127.69520407 -15.34228516 127.23901367 C-17.78031104 126.53990599 -20.20808055 125.81103466 -22.63671875 125.08007812 C-24.19477769 124.62965632 -25.75335695 124.1810297 -27.3125 123.734375 C-28.03254211 123.5147258 -28.75258423 123.2950766 -29.4944458 123.06877136 C-34.4324032 121.70522651 -37.65248323 121.88845979 -42.546875 123.84765625 C-45.3035175 126.11427829 -45.3035175 126.11427829 -47.671875 128.84765625 C-51.71755575 133.29402743 -54.4359778 135.53821687 -60.4921875 136.140625 C-72.58568824 134.9807624 -83.76194495 123.47261233 -92.546875 115.84765625 C-93.40490723 115.10346436 -93.40490723 115.10346436 -94.28027344 114.34423828 C-101.1933797 108.2926877 -107.65197372 101.90405291 -113.546875 94.84765625 C-114.0109375 94.29464844 -114.475 93.74164063 -114.953125 93.171875 C-117.80832583 89.3887339 -118.76423039 85.51607202 -118.546875 80.84765625 C-116.78271742 75.7757032 -113.29532661 71.65574444 -110.0703125 67.41015625 C-108.26218623 64.36879514 -107.8080164 62.38083884 -107.546875 58.84765625 C-108.51897603 55.41294363 -108.51897603 55.41294363 -110.15234375 51.91015625 C-110.43282059 51.26699463 -110.71329742 50.62383301 -111.00227356 49.96118164 C-111.59637065 48.60672039 -112.19773538 47.25542627 -112.8059082 45.90722656 C-113.72867379 43.86030296 -114.62879556 41.80459529 -115.52539062 39.74609375 C-119.81693196 29.00591656 -119.81693196 29.00591656 -127.546875 20.84765625 C-138.24808445 19.18712375 -145.65348766 27.73194146 -151.546875 35.84765625 Z " fill="#F5F5DC" transform="translate(335.546875,158.15234375)"/>
</svg>
