<?xml version="1.0" encoding="UTF-8"?>
<svg version="1.1" xmlns="http://www.w3.org/2000/svg" width="436" height="482">
<path d="M0 0 C18.86176375 6.85207824 37.85587259 13.51150152 57.64834595 17.1257019 C64.6777999 18.50274521 69.29490339 21.68304486 73.35073853 27.54147339 C75.16848493 32.9947126 75.0345955 37.67141096 72.66323853 42.85397339 C70.39232275 46.94643644 67.84327758 48.6275424 63.47573853 50.22897339 C57.87560136 51.05252297 52.85003416 50.38399051 47.40542603 49.00241089 C46.76129761 48.84088531 46.11716919 48.67935974 45.45352173 48.51293945 C43.37539019 47.98907037 41.30062625 47.45303176 39.22573853 46.91647339 C37.78981699 46.55209304 36.35378092 46.18816381 34.91763306 45.82467651 C25.79600403 43.50148687 16.71803692 41.04270633 7.72134399 38.26950073 C3.49634005 36.99834732 -0.18493697 36.06457225 -4.64926147 36.54147339 C-7.86188914 38.25123511 -7.86188914 38.25123511 -8.64926147 41.35397339 C-8.97234022 44.64745965 -8.97234022 44.64745965 -6.72372437 47.05490112 C-2.81558187 50.215739 0.73907687 51.25065144 5.54214478 52.51412964 C6.4420665 52.76392075 7.34198822 53.01371185 8.2691803 53.27107239 C10.17758718 53.79725018 12.08823634 54.31535341 14.00088501 54.82589722 C16.85647646 55.5888086 19.70435709 56.37610477 22.5519104 57.16842651 C53.34178827 65.63596905 81.11789592 71.96902617 110.35073853 55.54147339 C116.75602609 51.87408268 123.08714653 48.0836956 129.41812134 44.29000854 C134.33338607 41.35934537 139.27956131 38.48205695 144.22573853 35.60397339 C146.23619296 34.43346534 148.24660945 33.26289211 150.25698853 32.09225464 C151.75939087 31.21754517 151.75939087 31.21754517 153.29214478 30.32516479 C156.38721534 28.52020107 159.4787909 26.70938229 162.56948853 24.89694214 C167.56943332 21.96596724 172.57641079 19.04746729 177.5909729 16.14157104 C179.36991784 15.11014808 181.14737984 14.07616107 182.92300415 13.03903198 C213.07313801 -4.52444528 213.07313801 -4.52444528 228.49917603 -0.96243286 C233.12644692 0.55992206 235.71860495 2.28956531 238.35073853 6.54147339 C241.24712773 12.76295922 241.30563492 19.23116589 239.41323853 25.79147339 C234.04573588 32.94814358 225.61808865 37.35771595 217.97573853 41.72897339 C210.87248919 45.85768865 203.83794029 50.05693509 196.91323853 54.47897339 C190.04788288 58.85816031 183.128539 63.13551885 176.16323853 67.35397339 C168.18564264 72.18732034 160.25153814 77.08359337 152.35073853 82.04147339 C143.5437235 87.56656169 134.69170735 93.01081401 125.8019104 98.40158081 C119.2953627 102.34950587 112.81642591 106.33953078 106.35073853 110.35397339 C103.8005876 111.93236764 101.2498803 113.50985755 98.69888306 115.08688354 C97.19036833 116.02135337 95.68339531 116.95831915 94.17837524 117.89840698 C79.40716227 127.11854254 64.3302415 135.41583621 46.4502306 131.44199657 C45.74926101 131.27542207 45.04829142 131.10884756 44.32608032 130.93722534 C43.55756839 130.76024518 42.78905645 130.58326502 41.99725628 130.40092182 C32.59136817 128.192744 23.27420035 125.63869716 13.95676613 123.08769798 C10.66571735 122.18768674 7.3728696 121.29455701 4.079422 120.40336609 C-5.26925151 117.87325079 -14.61632977 115.33745313 -23.95809937 112.7819519 C-29.70752542 111.20968207 -35.46036465 109.65050268 -41.21563148 108.09975624 C-43.39661689 107.50939328 -45.57627836 106.91411588 -47.75453758 106.3137722 C-50.78940808 105.47780601 -53.82834462 104.65857755 -56.8687439 103.84298706 C-57.75972275 103.59320602 -58.6507016 103.34342499 -59.56867981 103.08607483 C-64.64006583 101.74723578 -68.41891681 101.38553311 -73.64926147 102.54147339 C-74.61863647 102.72709839 -75.58801147 102.91272339 -76.58676147 103.10397339 C-77.60769897 103.32053589 -77.60769897 103.32053589 -78.64926147 103.54147339 C-78.93946167 103.00071167 -79.22966187 102.45994995 -79.52865601 101.90280151 C-85.38968825 91.00726358 -91.37232746 80.20353112 -97.64926147 69.54147339 C-102.35328172 61.54281116 -106.94959842 53.49718316 -111.39926147 45.35397339 C-111.90070679 44.43938354 -112.4021521 43.5247937 -112.91879272 42.58248901 C-113.61295288 41.30341675 -113.61295288 41.30341675 -114.32113647 39.99850464 C-114.72429077 39.25576294 -115.12744507 38.51302124 -115.54281616 37.74777222 C-116.72409583 35.39225052 -117.70357916 32.9999772 -118.64926147 30.54147339 C-105.3678982 22.6799422 -92.01669348 14.9413007 -78.63217163 7.25680542 C-76.0340127 5.76272581 -73.44057318 4.26088111 -70.84848022 2.75631714 C-44.91056857 -12.20323659 -27.25273798 -9.92238836 0 0 Z " fill="#F5F5DC" transform="translate(193.64926147460938,312.4585266113281)"/>
<path d="M0 0 C1.17949219 -0.03738281 2.35898437 -0.07476563 3.57421875 -0.11328125 C11.54055993 0.79406586 17.35548854 5.60420964 23.5 10.4375 C32.0082577 17.11284047 38.64692535 19.1985226 49.51586914 19.60205078 C59.88453344 20.01003645 67.34771922 21.14721306 75.48828125 28.0078125 C80.39978169 34.21292012 82.0498576 41.73033891 83.6875 49.3125 C86.19845855 59.98822458 89.73569612 66.51294419 98.22265625 73.56640625 C105.90970376 79.98904221 111.07852105 85.49358609 112.1875 95.8125 C112.08236628 104.0416029 108.13344934 110.78403952 104.31396484 117.9140625 C99.44926369 127.16444957 98.72471464 134.77774596 100.25 145 C102.18150273 158.67005481 102.18150273 158.67005481 100.1875 164.8125 C99.87425781 165.84890625 99.87425781 165.84890625 99.5546875 166.90625 C95.96254074 173.86462233 91.15062444 177.45381861 84.0625 180.4375 C82.55063425 181.11555774 81.03891479 181.79394177 79.52734375 182.47265625 C78.12308261 183.08750842 76.71819358 183.70092981 75.3125 184.3125 C65.79798021 188.49222021 61.57770006 192.63863334 56.09887695 201.44848633 C51.21573349 209.28594698 46.48747258 216.29080244 37.3125 219.3125 C27.97149666 220.77554872 19.77639966 218.33708203 11 215.359375 C1.64147373 212.33454026 -5.88165335 213.78121703 -15 216.875 C-23.5594756 219.55773561 -32.46610157 221.47788595 -41.0625 217.8125 C-48.73754756 213.15950241 -53.32848416 205.12164657 -57.96044922 197.68041992 C-63.30961352 189.29962709 -69.79776081 186.0731675 -78.75 182.25 C-94.78273464 175.36678125 -94.78273464 175.36678125 -98.6875 166.3125 C-101.00174879 160.21340955 -100.60522416 155.28513158 -99.8125 148.875 C-98.01894273 137.10583769 -98.01894273 137.10583769 -100.25 125.6875 C-100.60835937 124.85734375 -100.96671875 124.0271875 -101.3359375 123.171875 C-103.52714931 118.53613209 -105.84181243 113.9673398 -108.19921875 109.4140625 C-111.31146138 102.92818153 -111.75838378 95.98124513 -110.14453125 88.9453125 C-106.64485133 79.71141524 -98.09914799 73.14445015 -90.4765625 67.2734375 C-84.60515447 60.83796407 -83.3507468 52.35199834 -81.70898438 44.08984375 C-79.80095323 35.26279058 -76.35010851 28.47002496 -68.6875 23.3125 C-63.11422175 20.39780962 -57.41160597 20.04759089 -51.25 19.75 C-37.93394471 19.08886827 -30.37291035 16.32002634 -19.6875 8.3125 C-17.81816317 6.97123843 -15.94372495 5.63703594 -14.0625 4.3125 C-13.28648437 3.755625 -12.51046875 3.19875 -11.7109375 2.625 C-7.8849197 0.14325872 -4.461424 0.09164006 0 0 Z M-47.6875 66.3125 C-48.57695312 67.15361328 -48.57695312 67.15361328 -49.484375 68.01171875 C-60.00582241 78.78771731 -64.50775909 95.2810467 -65.0625 109.875 C-64.40370281 129.18062206 -56.09852737 145.92064841 -42.29296875 159.1796875 C-27.04404773 171.66231251 -8.97775168 175.75612202 10.3125 174.3125 C25.91362208 171.60397186 37.41377264 164.3088279 48.3125 153.3125 C48.90804687 152.75046875 49.50359375 152.1884375 50.1171875 151.609375 C60.70016278 140.74037336 65.20238604 124.10691646 65.75 109.4375 C65.28082165 91.24153956 58.02573486 75.29470315 45.3125 62.3125 C38.33501703 56.16411714 31.02425755 51.55556303 22.3125 48.3125 C21.52230469 47.99410156 20.73210937 47.67570312 19.91796875 47.34765625 C-4.73689189 38.92229442 -30.29319653 48.51802084 -47.6875 66.3125 Z " fill="#F5F5DC" transform="translate(274.6875,-0.3125)"/>
<path d="M0 0 C0.73863281 0.020625 1.47726563 0.04125 2.23828125 0.0625 C10.07855972 3.06356353 14.09724607 13.73284361 17.8125 20.625 C18.81148689 22.45439378 19.81361335 24.28204535 20.81584167 26.10966492 C21.48752243 27.33499315 22.15827026 28.56083325 22.82807922 29.78718567 C25.69857435 35.0400527 28.6430325 40.24731467 31.625 45.4375 C32.09905273 46.26427246 32.57310547 47.09104492 33.06152344 47.94287109 C34.05887337 49.68145889 35.05677333 51.41973126 36.05517578 53.15771484 C39.22970811 58.68537046 42.39745575 64.21690769 45.5625 69.75 C45.90039551 70.34066254 46.23829102 70.93132507 46.58642578 71.53988647 C52.06493384 81.12090142 57.50220321 90.72447807 62.859375 100.37402344 C65.36634182 104.88685589 67.89017439 109.37721788 70.55859375 113.796875 C70.98664307 114.51713867 71.41469238 115.23740234 71.85571289 115.97949219 C72.62106307 117.26090795 73.4011871 118.53370638 74.20092773 119.79394531 C76.95743122 124.45008414 77.83829615 128.73595636 76.6875 134 C73.20519456 141.00544042 65.52477967 144.41322445 58.9375 147.9375 C57.90367188 148.52595703 56.86984375 149.11441406 55.8046875 149.72070312 C49.68952748 153.03629052 43.72800667 155.893342 36.6875 154 C32.89710567 151.47723401 30.77614667 148.96534185 28.62890625 144.984375 C28.08540527 143.99284424 27.5419043 143.00131348 26.98193359 141.97973633 C26.41039551 140.91392334 25.83885742 139.84811035 25.25 138.75 C24.00591445 136.47676439 22.75976705 134.20465615 21.51171875 131.93359375 C20.8779834 130.77714355 20.24424805 129.62069336 19.59130859 128.42919922 C16.67171397 123.17033462 13.61922108 117.99245249 10.5625 112.8125 C5.56881849 104.31735021 0.76531327 95.7399214 -3.91894531 87.07080078 C-7.72731172 80.03404148 -11.66362801 73.07900357 -15.65039062 66.14208984 C-19.79059461 58.93200328 -23.87399372 51.69107302 -27.9375 44.4375 C-28.54190918 43.36008545 -29.14631836 42.2826709 -29.76904297 41.17260742 C-30.33252441 40.16560791 -30.89600586 39.1586084 -31.4765625 38.12109375 C-31.97623535 37.2283374 -32.4759082 36.33558105 -32.99072266 35.41577148 C-33.64500244 34.2199646 -33.64500244 34.2199646 -34.3125 33 C-34.69325684 32.31429932 -35.07401367 31.62859863 -35.46630859 30.92211914 C-36.87476532 27.72281742 -37.02115456 24.37511746 -36.3125 21 C-33.65024305 16.35652858 -31.24201437 13.93800867 -26.55859375 11.38671875 C-25.45708984 10.77892578 -24.35558594 10.17113281 -23.22070312 9.54492188 C-22.07537109 8.93197266 -20.93003906 8.31902344 -19.75 7.6875 C-18.60080078 7.05521484 -17.45160156 6.42292969 -16.26757812 5.77148438 C-5.18398617 -0.28650701 -5.18398617 -0.28650701 0 0 Z M-12.3125 29 C-13.38892709 30.88850355 -13.38892709 30.88850355 -13.3125 33 C-11.89627547 36.49890767 -10.80242226 37.74438838 -7.4375 39.5 C-4.27969059 40.30477952 -4.27969059 40.30477952 -1.5 38.6875 C0.54853113 37.18162599 0.54853113 37.18162599 1.6875 36 C2.05145977 32.14202645 2.24757535 29.84011302 0.0625 26.5625 C-4.95826833 23.25936294 -8.81447843 24.33597124 -12.3125 29 Z " fill="#F5F5DC" transform="translate(42.3125,326)"/>
<path d="M0 0 C4.27766798 1.33147766 5.95686472 2.79491042 8.3046875 6.578125 C9.18060547 7.94904297 9.18060547 7.94904297 10.07421875 9.34765625 C10.66847656 10.30542969 11.26273438 11.26320312 11.875 12.25 C17.15822627 20.7379965 21.97571678 27.43360782 31.1875 31.8125 C32.00605469 32.21082031 32.82460937 32.60914063 33.66796875 33.01953125 C38.18264909 34.91766318 42.36162073 35.2456606 47.25 35.5625 C48.51328125 35.64628906 49.7765625 35.73007813 51.078125 35.81640625 C52.52445313 35.90728516 52.52445313 35.90728516 54 36 C53.3540779 40.98451018 51.22709877 45.11549613 49.0703125 49.58984375 C48.67931366 50.41198868 48.28831482 51.23413361 47.88546753 52.08119202 C46.63720572 54.70249208 45.38116047 57.31997742 44.125 59.9375 C43.28725981 61.69442285 42.45001489 63.45158194 41.61328125 65.20898438 C35.25373571 78.54707839 35.25373571 78.54707839 32 85 C28.94020864 82.16459058 26.88942014 79.39707723 24.87109375 75.75390625 C24.03094727 74.25053711 24.03094727 74.25053711 23.17382812 72.71679688 C22.60083984 71.67587891 22.02785156 70.63496094 21.4375 69.5625 C20.29082437 67.50104626 19.14370413 65.43983976 17.99609375 63.37890625 C17.49263428 62.4669751 16.9891748 61.55504395 16.47045898 60.61547852 C15.02649615 58.04712821 13.52820439 55.51896513 12 53 C4.27014846 53.56839935 -3.25777252 54.64801485 -10.875 56.0625 C-12.87165745 56.43239359 -14.86903573 56.79842188 -16.8671875 57.16015625 C-17.73456543 57.32136963 -18.60194336 57.48258301 -19.49560547 57.64868164 C-22.03149402 58.004418 -24.44287786 58.06159324 -27 58 C-23.23325227 48.58081694 -18.98526819 39.42306514 -14.63427734 30.26318359 C-13.49927775 27.87347932 -12.36844585 25.48183787 -11.23828125 23.08984375 C-7.57611745 15.35051107 -3.889517 7.62851829 0 0 Z " fill="#F5F5DC" transform="translate(197,198)"/>
<path d="M0 0 C12.73225497 28.1841056 12.73225497 28.1841056 17.8125 40.1875 C18.14314453 40.96327393 18.47378906 41.73904785 18.81445312 42.53833008 C21 47.7529158 21 47.7529158 21 50 C12.38511654 48.61132636 3.81515148 47.04152269 -4.75 45.375 C-5.9359375 45.14554688 -7.121875 44.91609375 -8.34375 44.6796875 C-11.22943634 44.12116756 -14.11484402 43.561252 -17 43 C-18.83469351 45.89497355 -20.66743742 48.79117717 -22.5 51.6875 C-23.04446777 52.54641846 -23.58893555 53.40533691 -24.14990234 54.2902832 C-26.63866779 58.22464759 -29.11513947 62.16255379 -31.5078125 66.15625 C-31.87068359 66.75993408 -32.23355469 67.36361816 -32.60742188 67.9855957 C-33.56967696 69.59497195 -34.52338588 71.20944908 -35.4765625 72.82421875 C-35.97929687 73.54222656 -36.48203125 74.26023437 -37 75 C-37.66 75 -38.32 75 -39 75 C-41.14083676 70.05405977 -43.27695968 65.1061214 -45.40869141 60.15625 C-46.13492889 58.47176898 -46.86246371 56.78784668 -47.59130859 55.10449219 C-48.63718745 52.68829859 -49.67842261 50.2701506 -50.71875 47.8515625 C-51.04685669 47.0963028 -51.37496338 46.34104309 -51.7130127 45.56289673 C-54 40.22774341 -54 40.22774341 -54 38 C-53.27296875 37.92523438 -52.5459375 37.85046875 -51.796875 37.7734375 C-40.04185468 36.23624253 -30.77341642 32.02443849 -23 23 C-20.97824013 20.18906883 -19.16465671 17.2753183 -17.375 14.3125 C-8.71575194 0 -8.71575194 0 0 0 Z " fill="#F5F5DC" transform="translate(359,196)"/>
<path d="M0 0 C2.5 2.0625 2.5 2.0625 4 5 C4.03738183 8.97908819 4.02548297 11.61209661 1.63427734 14.84838867 C-0.19100939 16.69194371 -2.08430931 18.38422094 -4.0625 20.0625 C-5.09576416 20.98071533 -5.09576416 20.98071533 -6.14990234 21.91748047 C-8.0844105 23.63058831 -10.03816011 25.31834598 -12 27 C-13.37513937 28.20817472 -14.75017849 29.41646359 -16.125 30.625 C-16.71796875 31.13546875 -17.3109375 31.6459375 -17.921875 32.171875 C-20.78514447 34.690691 -23.57781476 37.28323055 -26.375 39.875 C-31.14687111 44.29482529 -35.93006278 48.699085 -40.7890625 53.0234375 C-42.19611968 54.28133667 -43.5886518 55.55581863 -44.9609375 56.8515625 C-48.47194534 60.08659593 -50.9825317 62.1090754 -56 62 C-61.82726279 59.03008117 -66.1410628 54.26744875 -70.72167969 49.70385742 C-72.24754639 48.1899344 -73.79108843 46.69568813 -75.3359375 45.20117188 C-76.31364472 44.23292537 -77.29024611 43.26356069 -78.265625 42.29296875 C-79.15024414 41.4218042 -80.03486328 40.55063965 -80.94628906 39.65307617 C-83.27973388 36.63862719 -83.83238412 34.78012779 -84 31 C-82.39588152 27.47093933 -81.25840638 26.17227092 -78 24 C-75.3125 23.4375 -75.3125 23.4375 -72 24 C-69.02009449 26.01175055 -66.54377469 28.46997545 -64 31 C-63.17113281 31.8146875 -62.34226563 32.629375 -61.48828125 33.46875 C-59.30934726 35.63058089 -57.14788016 37.80737234 -55 40 C-51.80253905 38.19155531 -49.20445447 36.42309308 -46.6875 33.75 C-44.33027121 31.32210483 -41.93937392 29.02056091 -39.375 26.8125 C-35.71853921 23.65915688 -32.16555646 20.40686692 -28.625 17.125 C-26.9497706 15.57576413 -25.27421548 14.02688112 -23.59863281 12.47802734 C-22.10437833 11.09650373 -20.610759 9.71429322 -19.1171875 8.33203125 C-18.25351562 7.54183594 -17.38984375 6.75164062 -16.5 5.9375 C-15.7471875 5.24527344 -14.994375 4.55304688 -14.21875 3.83984375 C-9.29254168 -0.24509308 -6.39679752 -1.86088655 0 0 Z " fill="#F5F5DC" transform="translate(315,79)"/>
</svg>
