<?xml version="1.0" encoding="UTF-8"?>
<svg version="1.1" xmlns="http://www.w3.org/2000/svg" width="512" height="512">
<path d="M0 0 C1.67459856 -0.00302307 3.34919573 -0.00691333 5.02379048 -0.01159257 C9.61128246 -0.02186124 14.19869619 -0.01969362 18.78619456 -0.01541197 C23.73926683 -0.01294271 28.69232036 -0.02196139 33.64538574 -0.02944946 C43.3434226 -0.0421928 53.04143177 -0.04399062 62.73947559 -0.0416492 C70.62294216 -0.03986551 78.50640032 -0.04161677 86.38986588 -0.04587364 C88.07346783 -0.04676643 88.07346783 -0.04676643 89.79108194 -0.04767724 C92.07130709 -0.04888901 94.35153224 -0.05010314 96.63175739 -0.05131962 C118.0112488 -0.06219371 139.39072443 -0.06003326 160.77021672 -0.05393478 C180.32347575 -0.04876547 199.87668496 -0.06002168 219.42993413 -0.07903299 C239.51398728 -0.0984105 259.59801687 -0.10666756 279.68207943 -0.10290974 C290.9550402 -0.1009976 302.22795857 -0.10348656 313.50091171 -0.11762428 C323.09744317 -0.1295379 332.69390612 -0.13094313 342.29043852 -0.11883412 C347.18495238 -0.1129454 352.07934092 -0.11184587 356.97384644 -0.12383652 C361.4583347 -0.13469488 365.94259301 -0.13159247 370.42707051 -0.11757483 C372.04542515 -0.1149278 373.66379781 -0.11729465 375.28213476 -0.1253107 C393.94883565 -0.2113209 410.87328405 4.87352597 424.61746216 17.98139954 C439.06211389 32.60660942 442.88972925 49.89385842 442.83909607 69.68229675 C442.84211914 71.35689531 442.8460094 73.03149248 442.85068864 74.70608723 C442.86095731 79.29357922 442.85878969 83.88099295 442.85450804 88.46849132 C442.85203878 93.42156358 442.86105746 98.37461711 442.86854553 103.3276825 C442.88128887 113.02571936 442.88308668 122.72372852 442.88074527 132.42177235 C442.87896158 140.30523891 442.88071284 148.18869707 442.88496971 156.07216263 C442.8855649 157.19456393 442.88616009 158.31696523 442.88677331 159.4733787 C442.88798508 161.75360385 442.88919921 164.033829 442.89041569 166.31405415 C442.90128978 187.69354555 442.89912933 209.07302118 442.89303084 230.45251347 C442.88786153 250.0057725 442.89911775 269.55898171 442.91812906 289.11223088 C442.93750657 309.19628404 442.94576363 329.28031362 442.94200581 349.36437619 C442.94009367 360.63733696 442.94258263 371.91025532 442.95672035 383.18320847 C442.96863397 392.77973992 442.9700392 402.37620287 442.95793018 411.97273527 C442.95204147 416.86724913 442.95094194 421.76163768 442.96293259 426.65614319 C442.97379095 431.14063145 442.97068854 435.62488976 442.9566709 440.10936727 C442.95402386 441.7277219 442.95639072 443.34609456 442.96440677 444.96443151 C443.05041697 463.6311324 437.9655701 480.5555808 424.85769653 494.29975891 C413.30208015 505.71271336 397.86605262 512.46057718 381.67389584 512.50955391 C380.70386403 512.50235769 379.73383223 512.49516148 378.73440552 512.48774719 C377.67271684 512.48798826 376.61102816 512.48822933 375.51716709 512.48847771 C372.10910477 512.48699494 368.70126617 512.47180984 365.29324341 512.45600891 C363.17772527 512.45306526 361.06220568 512.45102681 358.94668579 512.4499054 C351.13640141 512.43945534 343.3261483 512.4115328 335.51589966 512.38569641 C318.04652466 512.34444641 300.57714966 512.30319641 282.57839966 512.26069641 C282.57839966 454.18069641 282.57839966 396.10069641 282.57839966 336.26069641 C298.41839966 336.26069641 314.25839966 336.26069641 330.57839966 336.26069641 C330.90839966 334.61069641 331.23839966 332.96069641 331.57839966 331.26069641 C332.49441191 328.75196107 333.44341736 326.28180342 334.4458313 323.80830383 C334.73858444 323.07605591 335.03133759 322.34380798 335.33296204 321.58937073 C336.29741365 319.17997729 337.26794134 316.77308171 338.23855591 314.36616516 C338.91011041 312.6919437 339.58128332 311.01756914 340.25209045 309.3430481 C342.01556 304.94390296 343.78419822 300.54685392 345.55392456 296.15022278 C347.67790313 290.8703906 349.79544663 285.5879748 351.91407013 280.30599213 C355.13059046 272.28890454 358.3552623 264.27514029 361.57839966 256.26069641 C335.50839966 256.26069641 309.43839966 256.26069641 282.57839966 256.26069641 C282.49589966 244.66944641 282.41339966 233.07819641 282.32839966 221.13569641 C282.29198364 217.48362122 282.25556763 213.83154602 282.2180481 210.06880188 C282.19998169 205.58906555 282.19998169 205.58906555 282.19662476 203.48802185 C282.19050578 202.02906914 282.1764857 200.57013594 282.15609741 199.11131287 C282.12666889 196.89366336 282.12278026 194.67724338 282.1242981 192.45942688 C282.11541565 191.21144318 282.1065332 189.96345947 282.09738159 188.67765808 C282.67357436 184.58461307 283.99504707 182.45227273 286.57839966 179.26069641 C292.68789534 175.45757661 298.82376764 175.8703701 305.85574341 175.96772766 C307.40799622 175.97225952 307.40799622 175.97225952 308.99160767 175.97688293 C312.83314073 175.99250178 316.6745309 176.03438546 320.51589966 176.07319641 C329.11652466 176.13507141 337.71714966 176.19694641 346.57839966 176.26069641 C346.57839966 149.86069641 346.57839966 123.46069641 346.57839966 96.26069641 C331.32621216 96.44632141 331.32621216 96.44632141 315.76589966 96.63569641 C312.59762573 96.66969543 309.42935181 96.70369446 306.16506958 96.73872375 C273.64909532 97.15231444 243.60622609 99.04940577 218.57839966 122.26069641 C217.77918091 122.99159485 216.97996216 123.72249329 216.15652466 124.47554016 C194.8075611 144.85735268 188.12911474 171.25257585 187.32791138 199.79438782 C187.12990621 208.34461572 187.04517124 216.89625906 186.95339966 225.44819641 C186.82964966 235.61632141 186.70589966 245.78444641 186.57839966 256.26069641 C165.45839966 256.26069641 144.33839966 256.26069641 122.57839966 256.26069641 C122.57839966 282.66069641 122.57839966 309.06069641 122.57839966 336.26069641 C143.69839966 336.26069641 164.81839966 336.26069641 186.57839966 336.26069641 C186.57839966 394.34069641 186.57839966 452.42069641 186.57839966 512.26069641 C136.1145227 512.38160551 136.1145227 512.38160551 114.95535278 512.40718079 C100.34993324 512.42497632 85.74456565 512.44588806 71.13919067 512.48701477 C60.50181438 512.51695382 49.86448026 512.53628014 39.227063 512.5429619 C33.59672308 512.5468665 27.96650381 512.55601797 22.33620262 512.57788658 C17.03144942 512.59832285 11.72686601 512.60451578 6.42207718 512.60001945 C4.48033156 512.60084146 2.53857997 512.60676436 0.59686852 512.61831284 C-19.19538111 512.73020614 -36.73403873 508.58482925 -51.46066284 494.53999329 C-65.90531458 479.9147834 -69.73292994 462.6275344 -69.68229675 442.83909607 C-69.68531982 441.16449751 -69.68921008 439.48990034 -69.69388932 437.81530559 C-69.704158 433.22781361 -69.70199038 428.64039988 -69.69770873 424.05290151 C-69.69523946 419.09982924 -69.70425815 414.14677571 -69.71174622 409.19371033 C-69.72448955 399.49567347 -69.72628737 389.7976643 -69.72394595 380.09962048 C-69.72216226 372.21615391 -69.72391353 364.33269575 -69.72817039 356.44923019 C-69.72876558 355.32682889 -69.72936077 354.20442759 -69.729974 353.04801413 C-69.73118576 350.76778898 -69.73239989 348.48756382 -69.73361637 346.20733868 C-69.74449046 324.82784727 -69.74233001 303.44837164 -69.73623153 282.06887935 C-69.73106222 262.51562032 -69.74231843 242.96241111 -69.76132975 223.40916194 C-69.78070726 203.32510879 -69.78896432 183.2410792 -69.7852065 163.15701663 C-69.78329436 151.88405587 -69.78578331 140.6111375 -69.79992104 129.33818436 C-69.81183466 119.7416529 -69.81323988 110.14518995 -69.80113087 100.54865755 C-69.79524216 95.65414369 -69.79414263 90.75975515 -69.80613327 85.86524963 C-69.81699163 81.38076137 -69.81388922 76.89650306 -69.79987159 72.41202556 C-69.79722455 70.79367092 -69.79959141 69.17529826 -69.80760745 67.55696131 C-69.89361766 48.89026042 -64.80877078 31.96581202 -51.70089722 18.22163391 C-37.07568733 3.77698217 -19.78843833 -0.05063318 0 0 Z " fill="#F5F5DC" transform="translate(69.42160034179688,-0.2606964111328125)"/>
</svg>
